# xmcd
#
# Track frame offsets:
#	150
#	12100
#	23696
#	43344
#	59989
#	73226
#	85353
#	101556
#	117896
#	139488
#	154264
#	168598
#	184638
#	200443
#	213226
#	230184
#	253792
#	266074
#
# Disc length: 3834 seconds
#
# Revision: 4000199000
# Processed by: cddbd v1.5.2PL0 Copyright (c) Steve Scherf et al.
# Submitted via: EZCDAudioConverter 9.0.0.1
#
DISCID=160ef812
DTITLE=A Film By Ken Burns - Country Music: A Film By Ken Burns - The Soundtra
DTITLE=ck 
DYEAR=2019
DGENRE=Country
TTITLE0=Tammy Wynette - Stand By Your Man
TTITLE1=The Byrds - You Ain't Goin' Nowhere
TTITLE2=Kris Kristofferson - Me And Bobby McGee
TTITLE3=Bob Dylan and Johnny Cash - Girl From The North Country
TTITLE4=Waylon Jennings - Are You Sure Hank Done It This Way
TTITLE5=Dolly Parton - Jolene
TTITLE6=Emmylou Harris - Boulder To Birmingham
TTITLE7=Willie Nelson - Whiskey River [Live]
TTITLE8=Merle Haggard and Willie Nelson - Pancho And Lefty
TTITLE9=George Jones - He Stopped Loving Her Today
TTITLE10=Ricky Skaggs - Don't Get Above Your Raisin'
TTITLE11=Reba McEntire - Somebody Should Leave
TTITLE12=The Judds - Why Not Me
TTITLE13=Dwight Yoakam and Buck Owens - Streets Of Bakersfield
TTITLE14=Kathy Mattea - Where've You Been
TTITLE15=Vince Gill - Go Rest High On That Mountain
TTITLE16=Rosanne Cash - I Still Miss Someone [Live]
TTITLE17=The Nitty Gritty Dirt Band - Will The Circle Be Unbroken
EXTD=
EXTT0=
EXTT1=
EXTT2=
EXTT3=
EXTT4=
EXTT5=
EXTT6=
EXTT7=
EXTT8=
EXTT9=
EXTT10=
EXTT11=
EXTT12=
EXTT13=
EXTT14=
EXTT15=
EXTT16=
EXTT17=
PLAYORDER=
